<?xml version="1.0" encoding="UTF-8"?>
<svg xmlns="http://www.w3.org/2000/svg" xmlns:xlink="http://www.w3.org/1999/xlink" width="30px" height="30px" viewBox="0 0 30 30" version="1.1">
<g id="surface1">
<path style=" stroke:none;fill-rule:nonzero;fill:rgb(0%,0%,0%);fill-opacity:1;" d="M 15 2.703125 C 19.003906 2.703125 19.480469 2.71875 21.0625 2.789062 C 22.695312 2.863281 24.378906 3.238281 25.570312 4.429688 C 26.773438 5.632812 27.136719 7.296875 27.210938 8.9375 C 27.28125 10.519531 27.296875 10.996094 27.296875 15 C 27.296875 19.003906 27.28125 19.480469 27.210938 21.0625 C 27.136719 22.6875 26.753906 24.386719 25.570312 25.570312 C 24.367188 26.773438 22.703125 27.136719 21.0625 27.210938 C 19.480469 27.28125 19.003906 27.296875 15 27.296875 C 10.996094 27.296875 10.519531 27.28125 8.9375 27.210938 C 7.324219 27.136719 5.601562 26.746094 4.429688 25.570312 C 3.234375 24.375 2.863281 22.691406 2.789062 21.0625 C 2.71875 19.480469 2.703125 19.003906 2.703125 15 C 2.703125 10.996094 2.71875 10.519531 2.789062 8.9375 C 2.863281 7.320312 3.25 5.609375 4.429688 4.429688 C 5.628906 3.230469 7.300781 2.863281 8.9375 2.789062 C 10.519531 2.71875 10.996094 2.703125 15 2.703125 M 15 0 C 10.925781 0 10.414062 0.015625 8.816406 0.0898438 C 6.496094 0.195312 4.195312 0.839844 2.515625 2.515625 C 0.835938 4.199219 0.195312 6.496094 0.0898438 8.816406 C 0.015625 10.414062 0 10.925781 0 15 C 0 19.074219 0.015625 19.585938 0.0898438 21.183594 C 0.195312 23.5 0.84375 25.808594 2.515625 27.484375 C 4.199219 29.164062 6.5 29.804688 8.816406 29.910156 C 10.414062 29.984375 10.925781 30 15 30 C 19.074219 30 19.585938 29.984375 21.183594 29.910156 C 23.503906 29.804688 25.808594 29.15625 27.484375 27.484375 C 29.167969 25.796875 29.804688 23.503906 29.910156 21.183594 C 29.984375 19.585938 30 19.074219 30 15 C 30 10.925781 29.984375 10.414062 29.910156 8.816406 C 29.804688 6.496094 29.15625 4.191406 27.484375 2.515625 C 25.804688 0.839844 23.496094 0.195312 21.183594 0.0898438 C 19.585938 0.015625 19.074219 0 15 0 Z M 15 0 "/>
<path style=" stroke:none;fill-rule:nonzero;fill:rgb(0%,0%,0%);fill-opacity:1;" d="M 15 7.296875 C 10.746094 7.296875 7.296875 10.746094 7.296875 15 C 7.296875 19.253906 10.746094 22.703125 15 22.703125 C 19.253906 22.703125 22.703125 19.253906 22.703125 15 C 22.703125 10.746094 19.253906 7.296875 15 7.296875 Z M 15 20 C 12.238281 20 10 17.761719 10 15 C 10 12.238281 12.238281 10 15 10 C 17.761719 10 20 12.238281 20 15 C 20 17.761719 17.761719 20 15 20 Z M 15 20 "/>
<path style=" stroke:none;fill-rule:nonzero;fill:rgb(0%,0%,0%);fill-opacity:1;" d="M 24.808594 6.992188 C 24.808594 7.988281 24 8.792969 23.007812 8.792969 C 22.011719 8.792969 21.207031 7.988281 21.207031 6.992188 C 21.207031 6 22.011719 5.191406 23.007812 5.191406 C 24 5.191406 24.808594 6 24.808594 6.992188 Z M 24.808594 6.992188 "/>
</g>
</svg>
