<svg xmlns="http://www.w3.org/2000/svg" viewBox="0 0 43.65 29.53"><path d="M25.34,20.16a10.52,10.52,0,0,1-1.61,5.29A9.79,9.79,0,0,1,19.58,29a14.17,14.17,0,0,1-6.11,1.26,11.32,11.32,0,0,1-8.92-3.68Q1.31,22.9,1.3,16.17V14.75A17.44,17.44,0,0,1,2.77,7.36,11.14,11.14,0,0,1,7,2.47,11.8,11.8,0,0,1,13.39.75a12.34,12.34,0,0,1,8.4,2.75,10.85,10.85,0,0,1,3.61,7.58H18.5a5.1,5.1,0,0,0-1.32-3.76,5.4,5.4,0,0,0-3.79-1.15A4.17,4.17,0,0,0,9.6,8.1Q8.4,10,8.34,14.28v2q0,4.59,1.16,6.57a4.22,4.22,0,0,0,4,2,5.32,5.32,0,0,0,3.65-1.12,4.77,4.77,0,0,0,1.34-3.57Z" transform="translate(-1.3 -0.75)"/><path d="M39,20.24a7,7,0,0,1-.57-1.72,5.52,5.52,0,0,1-4.59,2.07A6.78,6.78,0,0,1,29.23,19a5.24,5.24,0,0,1-1.89-4.12,5.35,5.35,0,0,1,2.29-4.7q2.31-1.59,6.69-1.59h1.84v-1q0-2.64-2.28-2.64A1.86,1.86,0,0,0,33.76,7h-6a5.31,5.31,0,0,1,2.36-4.5,9.87,9.87,0,0,1,6-1.73A8.69,8.69,0,0,1,42,2.53a6.22,6.22,0,0,1,2.18,4.9V15.9a8.64,8.64,0,0,0,.81,4v.3Zm-3.73-3.89a3.33,3.33,0,0,0,1.85-.48,3,3,0,0,0,1-1.08V11.73H36.43q-3.12,0-3.12,2.79a1.71,1.71,0,0,0,.55,1.32A2,2,0,0,0,35.26,16.35Z" transform="translate(-1.3 -0.75)"/><path d="M30.59,27.29a1,1,0,0,1,.66.23.79.79,0,0,1,.26.6.76.76,0,0,1-.26.6,1,1,0,0,1-1.32,0,.79.79,0,0,1-.26-.6.76.76,0,0,1,.26-.59A1,1,0,0,1,30.59,27.29Z" transform="translate(-1.3 -0.75)"/><path d="M35,27.42a2,2,0,0,1-2.88.17,2.29,2.29,0,0,1-.47-1.54V22.44h1.74v3.62a.63.63,0,0,0,.7.72.9.9,0,0,0,.85-.43V22.44h1.75V28H35Z" transform="translate(-1.3 -0.75)"/><path d="M39.82,25.58l.93-3.14h1.86L40.34,29l-.1.24a1.73,1.73,0,0,1-1.71,1.08,2.66,2.66,0,0,1-.72-.1V28.93H38a1.22,1.22,0,0,0,.56-.1.67.67,0,0,0,.28-.38l.14-.37-1.94-5.64h1.86Z" transform="translate(-1.3 -0.75)"/></svg>