<?xml version="1.0" encoding="UTF-8"?>
<svg xmlns="http://www.w3.org/2000/svg" xmlns:xlink="http://www.w3.org/1999/xlink" width="30px" height="30px" viewBox="0 0 30 30" version="1.1">
<g id="surface1">
<path style=" stroke:none;fill-rule:nonzero;fill:rgb(0%,0%,0%);fill-opacity:1;" d="M 23.75 1.25 L 6.25 1.25 C 2.800781 1.253906 0.00390625 4.050781 0 7.5 L 0 22.5 C 0.00390625 25.949219 2.800781 28.746094 6.25 28.75 L 23.75 28.75 C 27.199219 28.746094 29.996094 25.949219 30 22.5 L 30 7.5 C 29.996094 4.050781 27.199219 1.253906 23.75 1.25 Z M 6.25 3.75 L 23.75 3.75 C 25.28125 3.753906 26.65625 4.6875 27.226562 6.109375 L 17.652344 15.683594 C 16.1875 17.144531 13.8125 17.144531 12.347656 15.683594 L 2.773438 6.109375 C 3.34375 4.6875 4.71875 3.753906 6.25 3.75 Z M 23.75 26.25 L 6.25 26.25 C 4.179688 26.25 2.5 24.570312 2.5 22.5 L 2.5 9.375 L 10.578125 17.449219 C 13.023438 19.886719 16.976562 19.886719 19.421875 17.449219 L 27.5 9.375 L 27.5 22.5 C 27.5 24.570312 25.820312 26.25 23.75 26.25 Z M 23.75 26.25 "/>
</g>
</svg>
